<svg width="18" height="18" viewBox="0 0 18 18" fill="none" xmlns="http://www.w3.org/2000/svg">
<g clip-path="url(#clip0_132_1159)">
<path d="M5.02338 3.18451H13.3955V3.90544H5.02338V3.18451Z" fill="black"/>
<path d="M13.8606 4.48687H4.95827C4.83957 4.48518 4.72244 4.45948 4.61395 4.4113C4.50546 4.36312 4.40785 4.29347 4.32701 4.20654C4.24616 4.11961 4.18377 4.01721 4.14357 3.90552C4.10338 3.79382 4.08623 3.67514 4.09315 3.55663C4.09257 3.3208 4.18159 3.09355 4.3422 2.92085C4.5028 2.74815 4.72301 2.64291 4.95827 2.6264H13.8606C13.9839 2.6264 14.1023 2.5774 14.1895 2.49017C14.2767 2.40294 14.3257 2.28464 14.3257 2.16128C14.3257 2.03793 14.2767 1.91962 14.1895 1.8324C14.1023 1.74517 13.9839 1.69617 13.8606 1.69617H4.95827C4.47621 1.71305 4.01956 1.91649 3.68461 2.26358C3.34967 2.61067 3.16262 3.07428 3.16292 3.55663C3.15826 3.63253 3.15826 3.70864 3.16292 3.78454C3.15844 3.82161 3.15844 3.85909 3.16292 3.89617V14.7194C3.16262 15.2018 3.34967 15.6654 3.68461 16.0125C4.01956 16.3596 4.47621 16.563 4.95827 16.5799H13.8606C13.9839 16.5799 14.1023 16.5309 14.1895 16.4437C14.2767 16.3564 14.3257 16.2381 14.3257 16.1148V4.98454C14.326 4.858 14.278 4.73611 14.1916 4.64366C14.1052 4.55121 13.9869 4.49514 13.8606 4.48687ZM13.3955 15.6497H4.95827C4.72301 15.6331 4.5028 15.5279 4.3422 15.3552C4.18159 15.1825 4.09257 14.9553 4.09315 14.7194V5.2078C4.35761 5.35369 4.65636 5.42597 4.95827 5.4171H13.3955V15.6497Z" fill="black"/>
</g>
<defs>
<clipPath id="clip0_132_1159">
<rect width="16.7442" height="16.7442" fill="white" transform="translate(0.37207 0.76593)"/>
</clipPath>
</defs>
</svg>
