<svg width="24" height="24" viewBox="0 0 24 24" fill="none" xmlns="http://www.w3.org/2000/svg">
<path d="M16.5562 8.12376H4.92734M16.5562 8.12376C16.8132 8.12376 17.0597 8.22585 17.2414 8.40759C17.4232 8.58933 17.5253 8.83581 17.5253 9.09283V11.6124M16.5562 8.12376L12.6799 4.24747M4.92734 8.12376C4.67033 8.12376 4.42384 8.22585 4.2421 8.40759C4.06037 8.58933 3.95827 8.83581 3.95827 9.09283V18.7835C3.95827 19.0406 4.06037 19.2871 4.2421 19.4688C4.42384 19.6505 4.67033 19.7526 4.92734 19.7526H16.5562C16.8132 19.7526 17.0597 19.6505 17.2414 19.4688C17.4232 19.2871 17.5253 19.0406 17.5253 18.7835V16.264M4.92734 8.12376L8.80363 4.24747L12.6799 8.12376M18.4943 12H14.6181C14.104 12 13.6111 12.2042 13.2476 12.5677C12.8841 12.9312 12.6799 13.4242 12.6799 13.9382C12.6799 14.4522 12.8841 14.9452 13.2476 15.3087C13.6111 15.6721 14.104 15.8763 14.6181 15.8763H18.4943C18.7514 15.8763 18.9979 15.7742 19.1796 15.5925C19.3613 15.4108 19.4634 15.1643 19.4634 14.9073V12.9691C19.4634 12.7121 19.3613 12.4656 19.1796 12.2839C18.9979 12.1021 18.7514 12 18.4943 12Z" stroke="white" stroke-width="1.45361" stroke-linecap="round" stroke-linejoin="round"/>
</svg>
