<svg width="19" height="19" viewBox="0 0 19 19" fill="none" xmlns="http://www.w3.org/2000/svg">
<path d="M15.1428 2.60316H4.58728C3.75792 2.60316 3.07935 3.28174 3.07935 4.1111V14.6667C3.07935 15.496 3.75792 16.1746 4.58728 16.1746H15.1428C15.9722 16.1746 16.6508 15.496 16.6508 14.6667V4.1111C16.6508 3.28174 15.9722 2.60316 15.1428 2.60316ZM6.4722 13.9127C5.84641 13.9127 5.34125 13.4075 5.34125 12.7817C5.34125 12.1559 5.84641 11.6508 6.4722 11.6508C7.098 11.6508 7.60316 12.1559 7.60316 12.7817C7.60316 13.4075 7.098 13.9127 6.4722 13.9127ZM6.4722 7.12697C5.84641 7.12697 5.34125 6.62182 5.34125 5.99602C5.34125 5.37023 5.84641 4.86507 6.4722 4.86507C7.098 4.86507 7.60316 5.37023 7.60316 5.99602C7.60316 6.62182 7.098 7.12697 6.4722 7.12697ZM9.86506 10.5198C9.23927 10.5198 8.73411 10.0147 8.73411 9.38888C8.73411 8.76309 9.23927 8.25793 9.86506 8.25793C10.4909 8.25793 10.996 8.76309 10.996 9.38888C10.996 10.0147 10.4909 10.5198 9.86506 10.5198ZM13.2579 13.9127C12.6321 13.9127 12.127 13.4075 12.127 12.7817C12.127 12.1559 12.6321 11.6508 13.2579 11.6508C13.8837 11.6508 14.3889 12.1559 14.3889 12.7817C14.3889 13.4075 13.8837 13.9127 13.2579 13.9127ZM13.2579 7.12697C12.6321 7.12697 12.127 6.62182 12.127 5.99602C12.127 5.37023 12.6321 4.86507 13.2579 4.86507C13.8837 4.86507 14.3889 5.37023 14.3889 5.99602C14.3889 6.62182 13.8837 7.12697 13.2579 7.12697Z" fill="white"/>
</svg>
