<svg width="21" height="20" viewBox="0 0 21 20" fill="none" xmlns="http://www.w3.org/2000/svg">
<path d="M16.693 17.258L11.6123 12.1774C11.2091 12.5 10.7454 12.7554 10.2212 12.9435C9.69701 13.1317 9.13921 13.2258 8.54781 13.2258C7.08276 13.2258 5.84297 12.7183 4.82846 11.7032C3.81394 10.6881 3.30642 9.44836 3.30588 7.98385C3.30534 6.51933 3.81287 5.27955 4.82846 4.26449C5.84405 3.24944 7.08384 2.74191 8.54781 2.74191C10.0118 2.74191 11.2518 3.24944 12.268 4.26449C13.2841 5.27955 13.7914 6.51933 13.7897 7.98385C13.7897 8.57525 13.6957 9.13304 13.5075 9.65724C13.3193 10.1814 13.0639 10.6451 12.7414 11.0484L17.822 16.129L16.693 17.258ZM8.54781 11.6129C9.55588 11.6129 10.4129 11.2602 11.1188 10.5548C11.8247 9.84944 12.1774 8.99245 12.1768 7.98385C12.1763 6.97525 11.8236 6.11853 11.1188 5.41369C10.4139 4.70885 9.55695 4.35589 8.54781 4.35482C7.53867 4.35374 6.68195 4.7067 5.97765 5.41369C5.27335 6.12068 4.92039 6.9774 4.91878 7.98385C4.91717 8.9903 5.27013 9.84729 5.97765 10.5548C6.68518 11.2623 7.5419 11.615 8.54781 11.6129Z" fill="black" fill-opacity="0.8"/>
</svg>
