<svg width="18" height="18" viewBox="0 0 18 18" fill="none" xmlns="http://www.w3.org/2000/svg">
<path d="M8.74402 14.4433C10.2243 14.4433 11.6439 13.8552 12.6907 12.8085C13.7374 11.7618 14.3254 10.3422 14.3254 8.86188C14.3254 7.3816 13.7374 5.96195 12.6907 4.91523C11.6439 3.86852 10.2243 3.28048 8.74402 3.28048C7.26374 3.28048 5.84409 3.86852 4.79737 4.91523C3.75066 5.96195 3.16262 7.3816 3.16262 8.86188C3.16262 10.3422 3.75066 11.7618 4.79737 12.8085C5.84409 13.8552 7.26374 14.4433 8.74402 14.4433ZM8.74402 1.88513C9.66022 1.88513 10.5674 2.06559 11.4139 2.4162C12.2604 2.76682 13.0295 3.28072 13.6773 3.92857C14.3252 4.57642 14.8391 5.34553 15.1897 6.19199C15.5403 7.03845 15.7208 7.94568 15.7208 8.86188C15.7208 10.7122 14.9857 12.4868 13.6773 13.7952C12.3689 15.1036 10.5944 15.8386 8.74402 15.8386C4.88588 15.8386 1.76727 12.6991 1.76727 8.86188C1.76727 7.01153 2.50232 5.23697 3.81071 3.92857C5.11911 2.62018 6.89367 1.88513 8.74402 1.88513ZM9.09285 5.3735V9.03629L12.2324 10.8991L11.7091 11.7572L8.04634 9.55955V5.3735H9.09285Z" fill="black"/>
</svg>
