<svg width="18" height="18" viewBox="0 0 18 18" fill="none" xmlns="http://www.w3.org/2000/svg">
<path d="M13.5 11.25C14.2957 11.25 15.0587 11.5661 15.6213 12.1287C16.1839 12.6913 16.5 13.4543 16.5 14.25C16.5 15.0456 16.1839 15.8087 15.6213 16.3713C15.0587 16.9339 14.2957 17.25 13.5 17.25C12.7044 17.25 11.9413 16.9339 11.3787 16.3713C10.8161 15.8087 10.5 15.0456 10.5 14.25C10.5 13.4543 10.8161 12.6913 11.3787 12.1287C11.9413 11.5661 12.7044 11.25 13.5 11.25ZM13.5 12.75C13.1022 12.75 12.7207 12.908 12.4394 13.1893C12.158 13.4706 12 13.8522 12 14.25C12 14.6478 12.158 15.0293 12.4394 15.3106C12.7207 15.5919 13.1022 15.75 13.5 15.75C13.8978 15.75 14.2794 15.5919 14.5607 15.3106C14.842 15.0293 15 14.6478 15 14.25C15 13.8522 14.842 13.4706 14.5607 13.1893C14.2794 12.908 13.8978 12.75 13.5 12.75ZM4.53751 10.905C4.53751 10.905 5.59501 9.83998 5.60251 7.72499C5.33251 6.08249 5.97751 4.15499 7.45501 2.68499C9.65251 0.487485 12.855 0.127485 14.625 1.87499C16.3725 3.64498 16.0125 6.84749 13.815 9.04499C12.345 10.5225 10.4175 11.1675 8.77501 10.8975C6.66001 10.905 5.59501 11.9625 5.59501 11.9625L2.41501 15.1425L1.35751 14.085L4.53751 10.905ZM13.5525 2.94749C12.375 1.77749 10.125 2.12999 8.51251 3.74999C6.90751 5.35499 6.54751 7.61249 7.71751 8.78249C8.89501 9.95249 11.145 9.59249 12.75 7.98748C14.37 6.37498 14.7225 4.12499 13.5525 2.94749Z" fill="white"/>
</svg>
