<svg width="19" height="19" viewBox="0 0 19 19" fill="none" xmlns="http://www.w3.org/2000/svg">
<path d="M9.19025 14.9766L8.43628 15.7245C7.85791 16.2978 7.07922 16.6235 6.26495 16.6329C5.45068 16.6423 4.66469 16.3345 4.07327 15.7748C3.48186 15.215 3.1314 14.4471 3.09604 13.6335C3.06068 12.82 3.3432 12.0246 3.88382 11.4156L4.00219 11.2904L10.2466 4.95634L11.3775 6.08729L13.9787 3.53058C14.2653 3.24654 14.6504 3.08391 15.0539 3.07651C15.4573 3.06911 15.8481 3.21752 16.1449 3.49086C16.4418 3.7642 16.6218 4.14144 16.6476 4.54414C16.6735 4.94683 16.5431 5.34398 16.2836 5.653L16.1961 5.748L13.6394 8.34919L14.7704 9.48015L12.0048 12.2072M8.7341 6.46427L13.2579 10.9881" stroke="white" stroke-width="1.50794" stroke-linecap="round" stroke-linejoin="round"/>
<path d="M9.11108 14.381C9.11108 14.678 9.16959 14.9721 9.28326 15.2465C9.39693 15.521 9.56354 15.7703 9.77358 15.9804C9.98362 16.1904 10.233 16.357 10.5074 16.4707C10.7818 16.5844 11.076 16.6429 11.373 16.6429C11.67 16.6429 11.9642 16.5844 12.2386 16.4707C12.513 16.357 12.7624 16.1904 12.9724 15.9804C13.1824 15.7703 13.349 15.521 13.4627 15.2465C13.5764 14.9721 13.6349 14.678 13.6349 14.381C13.6349 14.0839 13.5764 13.7898 13.4627 13.5154C13.349 13.2409 13.1824 12.9916 12.9724 12.7815C12.7624 12.5715 12.513 12.4049 12.2386 12.2912C11.9642 12.1776 11.67 12.119 11.373 12.119C11.076 12.119 10.7818 12.1776 10.5074 12.2912C10.233 12.4049 9.98362 12.5715 9.77358 12.7815C9.56354 12.9916 9.39693 13.2409 9.28326 13.5154C9.16959 13.7898 9.11108 14.0839 9.11108 14.381Z" stroke="white" stroke-width="1.50794" stroke-linecap="round" stroke-linejoin="round"/>
</svg>
