<svg width="18" height="17" viewBox="0 0 18 17" fill="none" xmlns="http://www.w3.org/2000/svg">
<path fill-rule="evenodd" clip-rule="evenodd" d="M5.25599 7.0189V4.92587C5.25599 4.0007 5.62351 3.11342 6.27771 2.45922C6.9319 1.80502 7.81919 1.4375 8.74436 1.4375C9.66953 1.4375 10.5568 1.80502 11.211 2.45922C11.8652 3.11342 12.2327 4.0007 12.2327 4.92587C12.2327 5.30959 11.9188 5.62355 11.5351 5.62355C11.1513 5.62355 10.8374 5.30959 10.8374 4.92587C10.8374 4.37077 10.6169 3.8384 10.2243 3.44588C9.83183 3.05336 9.29946 2.83285 8.74436 2.83285C8.18925 2.83285 7.65689 3.05336 7.26437 3.44588C6.87185 3.8384 6.65134 4.37077 6.65134 4.92587V7.0189H12.9304C13.3005 7.0189 13.6554 7.1659 13.9171 7.42758C14.1787 7.68926 14.3258 8.04417 14.3258 8.41424V13.9956C14.3258 14.3657 14.1787 14.7206 13.9171 14.9823C13.6554 15.244 13.3005 15.391 12.9304 15.391H4.55831C4.18824 15.391 3.83333 15.244 3.57165 14.9823C3.30997 14.7206 3.16296 14.3657 3.16296 13.9956V8.41424C3.16296 8.04417 3.30997 7.68926 3.57165 7.42758C3.83333 7.1659 4.18824 7.0189 4.55831 7.0189H5.25599ZM4.55831 8.41424V13.9956H12.9304V8.41424H4.55831ZM10.1397 9.80959H11.5351V12.6003H10.1397V9.80959Z" fill="black"/>
</svg>
