<svg width="16" height="16" viewBox="0 0 16 16" fill="none" xmlns="http://www.w3.org/2000/svg">
<path d="M7.31827 13.117L6.5643 13.865C5.98593 14.4382 5.20724 14.764 4.39297 14.7734C3.5787 14.7828 2.79271 14.475 2.20129 13.9152C1.60988 13.3554 1.25942 12.5875 1.22406 11.774C1.1887 10.9604 1.47122 10.165 2.01184 9.55604L2.13021 9.43088L8.37458 3.09679L9.50553 4.22774L12.1067 1.67104C12.3933 1.38699 12.7784 1.22436 13.1819 1.21697C13.5853 1.20957 13.9761 1.35797 14.2729 1.63131C14.5698 1.90465 14.7498 2.2819 14.7757 2.68459C14.8015 3.08728 14.6711 3.48444 14.4116 3.79346L14.3241 3.88846L11.7674 6.48965L12.8984 7.6206L10.1328 10.3477M6.86212 4.60473L11.3859 9.12854" stroke="white" stroke-width="1.50794" stroke-linecap="round" stroke-linejoin="round"/>
<path d="M7.23911 12.5214C7.23911 12.8184 7.29761 13.1126 7.41128 13.387C7.52495 13.6614 7.69156 13.9108 7.9016 14.1208C8.11164 14.3309 8.36099 14.4975 8.63542 14.6111C8.90984 14.7248 9.20397 14.7833 9.50101 14.7833C9.79805 14.7833 10.0922 14.7248 10.3666 14.6111C10.641 14.4975 10.8904 14.3309 11.1004 14.1208C11.3105 13.9108 11.4771 13.6614 11.5907 13.387C11.7044 13.1126 11.7629 12.8184 11.7629 12.5214C11.7629 12.2244 11.7044 11.9302 11.5907 11.6558C11.4771 11.3814 11.3105 11.132 11.1004 10.922C10.8904 10.712 10.641 10.5454 10.3666 10.4317C10.0922 10.318 9.79805 10.2595 9.50101 10.2595C9.20397 10.2595 8.90984 10.318 8.63542 10.4317C8.36099 10.5454 8.11164 10.712 7.9016 10.922C7.69156 11.132 7.52495 11.3814 7.41128 11.6558C7.29761 11.9302 7.23911 12.2244 7.23911 12.5214Z" stroke="white" stroke-width="1.50794" stroke-linecap="round" stroke-linejoin="round"/>
</svg>
