<svg width="18" height="18" viewBox="0 0 18 18" fill="none" xmlns="http://www.w3.org/2000/svg">
<path d="M7.44323 15.5887L7.19067 13.571C6.96788 13.5035 6.72719 13.398 6.46858 13.2542C6.20951 13.1101 5.98928 12.9556 5.80788 12.791L3.94649 13.5828L2.64532 11.3154L4.25416 10.1021C4.23323 9.97656 4.21626 9.8468 4.20323 9.71284C4.18928 9.57889 4.1823 9.44889 4.1823 9.32284C4.1823 9.20563 4.18928 9.08238 4.20323 8.95308C4.21626 8.82377 4.23323 8.67819 4.25416 8.51633L2.64532 7.30447L3.94649 5.06354L5.79393 5.84215C6.0023 5.66866 6.22788 5.51215 6.47067 5.37261C6.71253 5.23308 6.94812 5.12517 7.17742 5.04889L7.44253 3.03052H10.0463L10.2981 5.06215C10.5656 5.1561 10.8018 5.26377 11.007 5.38517C11.2121 5.50656 11.4235 5.65866 11.6411 5.84145L13.5423 5.06354L14.8435 7.30377L13.1816 8.5568C13.2197 8.70098 13.2411 8.83331 13.2458 8.95377C13.2504 9.07424 13.2528 9.19284 13.2528 9.30959C13.2528 9.41796 13.2481 9.53215 13.2388 9.65215C13.23 9.77261 13.2095 9.91819 13.1774 10.0889L14.8128 11.3154L13.5116 13.5828L11.6411 12.7777C11.4239 12.9605 11.2053 13.117 10.9853 13.2473C10.7653 13.3775 10.5363 13.481 10.2981 13.5577L10.0463 15.5887H7.44323ZM8.72556 11.0538C9.21207 11.0538 9.62439 10.8847 9.96253 10.5466C10.3007 10.2084 10.4697 9.7961 10.4697 9.30959C10.4697 8.82308 10.3007 8.41075 9.96253 8.07261C9.62439 7.73447 9.21207 7.5654 8.72556 7.5654C8.23625 7.5654 7.82323 7.73447 7.48649 8.07261C7.14974 8.41075 6.98137 8.82308 6.98137 9.30959C6.98137 9.7961 7.14974 10.2084 7.48649 10.5466C7.82323 10.8847 8.23625 11.0538 8.72556 11.0538Z" fill="black"/>
</svg>
