<svg width="16" height="17" viewBox="0 0 16 17" fill="none" xmlns="http://www.w3.org/2000/svg">
<rect y="0.5" width="16" height="16" rx="8" fill="#AF3DF1"/>
<path d="M8.00002 13.1667C6.98992 13.1667 6.18184 12.7566 5.57578 11.9366C4.96972 11.1166 4.66669 10.0822 4.66669 8.83333C4.66669 7.58451 4.96972 6.55029 5.57578 5.73067C6.18184 4.91105 6.98992 4.50083 8.00002 4.5C9.01012 4.49918 9.8182 4.9094 10.4243 5.73067C11.0303 6.55194 11.3334 7.58616 11.3334 8.83333C11.3334 10.0805 11.0303 11.1149 10.4243 11.9366C9.8182 12.7583 9.01012 13.1683 8.00002 13.1667ZM8.00002 11.8976C8.66669 11.8976 9.16669 11.5881 9.50002 10.969C9.83335 10.35 10 9.63809 10 8.83333C10 8.02857 9.83335 7.31667 9.50002 6.69762C9.16669 6.07857 8.66669 5.76905 8.00002 5.76905C7.33335 5.76905 6.83335 6.07857 6.50002 6.69762C6.16669 7.31667 6.00002 8.02857 6.00002 8.83333C6.00002 9.63809 6.16669 10.35 6.50002 10.969C6.83335 11.5881 7.33335 11.8976 8.00002 11.8976Z" fill="#FFC107"/>
</svg>
