<svg width="19" height="19" viewBox="0 0 19 19" fill="none" xmlns="http://www.w3.org/2000/svg">
<path d="M14.7953 16.1111L12.3155 13.617L12.8349 13.0794L14.4183 14.6582V10.9932H15.1722V14.6582L16.7556 13.0937L17.2743 13.617L14.7953 16.1111ZM4.29701 16.1111C3.95018 16.1111 3.66041 15.995 3.42768 15.7628C3.19496 15.5306 3.07884 15.2408 3.07935 14.8934V3.75734C3.07935 3.41051 3.19571 3.12099 3.42843 2.88877C3.66116 2.65655 3.95068 2.54018 4.29701 2.53968H10.242L13.6349 5.93254V9.73178H11.4016V16.1111H4.29701ZM9.86506 6.30952H12.8809L9.86506 3.29365V6.30952ZM5.3126 14.0226H11.4024C11.3622 13.5265 11.2124 13.0709 10.953 12.6557C10.6937 12.24 10.3484 11.9105 9.91709 11.6672L10.4954 10.632C10.516 10.5913 10.5175 10.5468 10.4999 10.4986C10.4828 10.4503 10.4509 10.4136 10.4041 10.3885C10.367 10.3634 10.3272 10.3568 10.285 10.3689C10.2428 10.3809 10.2116 10.4076 10.1915 10.4488L9.59439 11.5074C9.40087 11.4265 9.20082 11.3649 8.99423 11.3227C8.78764 11.2804 8.57603 11.2596 8.35939 11.2601C8.14275 11.2606 7.93264 11.2822 7.72907 11.3249C7.5255 11.3676 7.32268 11.4285 7.12062 11.5074L6.53026 10.4488C6.50513 10.4056 6.46919 10.3789 6.42244 10.3689C6.3757 10.3593 6.33046 10.3671 6.28673 10.3923C6.27668 10.3923 6.25632 10.4722 6.22566 10.632L6.81149 11.6672C6.38324 11.9105 6.03641 12.2397 5.77101 12.6549C5.50562 13.0701 5.35256 13.5263 5.31185 14.0234M6.99395 13.1096C6.91302 13.1096 6.8419 13.0792 6.78058 13.0183C6.72026 12.9575 6.6901 12.8864 6.6901 12.805C6.6901 12.7235 6.72026 12.6527 6.78058 12.5923C6.84089 12.532 6.91202 12.5016 6.99395 12.5011C7.07588 12.5006 7.14449 12.5308 7.19978 12.5916C7.25507 12.6524 7.28322 12.7238 7.28423 12.8057C7.28423 12.8866 7.25508 12.9575 7.19677 13.0183C7.13896 13.0792 7.07136 13.1096 6.99395 13.1096ZM9.73462 13.1096C9.6532 13.1096 9.58207 13.0792 9.52125 13.0183C9.46043 12.9575 9.43002 12.8864 9.43002 12.805C9.43002 12.7235 9.46043 12.6527 9.52125 12.5923C9.58207 12.532 9.6532 12.5016 9.73462 12.5011C9.81605 12.5006 9.88693 12.5308 9.94724 12.5916C10.0086 12.6529 10.0392 12.7243 10.0392 12.8057C10.0392 12.8871 10.0086 12.958 9.94724 13.0183C9.88592 13.0786 9.81505 13.1091 9.73462 13.1096Z" fill="white"/>
</svg>
