<svg width="18" height="18" viewBox="0 0 18 18" fill="none" xmlns="http://www.w3.org/2000/svg">
<path d="M12.2324 12.4578L10.9068 13.7834C10.7789 13.9113 10.6161 13.9753 10.4184 13.9753C10.2208 13.9753 10.058 13.9113 9.93007 13.7834C9.80216 13.6555 9.73821 13.4927 9.73821 13.295C9.73821 13.0974 9.80216 12.9346 9.93007 12.8067L11.2556 11.4811L9.93007 10.1555C9.80216 10.0276 9.73821 9.8648 9.73821 9.66712C9.73821 9.46945 9.80216 9.30666 9.93007 9.17875C10.058 9.05085 10.2208 8.98689 10.4184 8.98689C10.6161 8.98689 10.7789 9.05085 10.9068 9.17875L12.2324 10.5043L13.558 9.17875C13.6859 9.05085 13.8487 8.98689 14.0463 8.98689C14.244 8.98689 14.4068 9.05085 14.5347 9.17875C14.6626 9.30666 14.7266 9.46945 14.7266 9.66712C14.7266 9.8648 14.6626 10.0276 14.5347 10.1555L13.2091 11.4811L14.5347 12.8067C14.6626 12.9346 14.7266 13.0974 14.7266 13.295C14.7266 13.4927 14.6626 13.6555 14.5347 13.7834C14.4068 13.9113 14.244 13.9753 14.0463 13.9753C13.8487 13.9753 13.6859 13.9113 13.558 13.7834L12.2324 12.4578ZM11.7789 6.02178L14.2556 3.54503C14.3952 3.4055 14.558 3.33875 14.744 3.3448C14.9301 3.35084 15.0929 3.4234 15.2324 3.56247C15.3603 3.70201 15.4243 3.8648 15.4243 4.05084C15.4243 4.23689 15.3603 4.39968 15.2324 4.53922L12.2847 7.50433C12.1452 7.64387 11.9824 7.71364 11.7963 7.71364C11.6103 7.71364 11.4475 7.64387 11.308 7.50433L9.80797 6.00433C9.68007 5.87643 9.61611 5.71364 9.61611 5.51596C9.61611 5.31829 9.68007 5.1555 9.80797 5.02759C9.93588 4.89968 10.0987 4.83573 10.2963 4.83573C10.494 4.83573 10.6568 4.89968 10.7847 5.02759L11.7789 6.02178ZM2.46495 10.7834H7.34867C7.54635 10.7834 7.71216 10.8504 7.84611 10.9843C7.98007 11.1183 8.04681 11.2839 8.04635 11.4811C8.04588 11.6783 7.9789 11.8441 7.84542 11.9785C7.71193 12.1129 7.54635 12.1797 7.34867 12.1788H2.46495C2.26728 12.1788 2.10169 12.1118 1.96821 11.9778C1.83472 11.8439 1.76774 11.6783 1.76728 11.4811C1.76681 11.2839 1.83379 11.1183 1.96821 10.9843C2.10262 10.8504 2.26821 10.7834 2.46495 10.7834ZM2.46495 5.20201H7.34867C7.54635 5.20201 7.71216 5.26898 7.84611 5.40294C7.98007 5.53689 8.04681 5.70247 8.04635 5.89968C8.04588 6.09689 7.9789 6.26271 7.84542 6.39712C7.71193 6.53154 7.54635 6.59829 7.34867 6.59736H2.46495C2.26728 6.59736 2.10169 6.53038 1.96821 6.39643C1.83472 6.26247 1.76774 6.09689 1.76728 5.89968C1.76681 5.70247 1.83379 5.53689 1.96821 5.40294C2.10262 5.26898 2.26821 5.20201 2.46495 5.20201Z" fill="black"/>
</svg>
