<svg width="18" height="17" viewBox="0 0 18 17" fill="none" xmlns="http://www.w3.org/2000/svg">
<path d="M8.74402 15.5624C4.89076 15.5624 1.76727 12.4389 1.76727 8.58569C1.76727 4.73244 4.89076 1.60895 8.74402 1.60895C12.5973 1.60895 15.7208 4.73244 15.7208 8.58569C15.7208 12.4389 12.5973 15.5624 8.74402 15.5624ZM8.74402 14.1671C10.2243 14.1671 11.6439 13.579 12.6907 12.5323C13.7374 11.4856 14.3254 10.066 14.3254 8.58569C14.3254 7.10541 13.7374 5.68576 12.6907 4.63905C11.6439 3.59233 10.2243 3.0043 8.74402 3.0043C7.26374 3.0043 5.84409 3.59233 4.79737 4.63905C3.75066 5.68576 3.16262 7.10541 3.16262 8.58569C3.16262 10.066 3.75066 11.4856 4.79737 12.5323C5.84409 13.579 7.26374 14.1671 8.74402 14.1671ZM8.04634 10.6787H9.44169V12.0741H8.04634V10.6787ZM9.44169 9.53104V9.98104H8.04634V8.93453C8.04634 8.74949 8.11985 8.57204 8.25069 8.4412C8.38153 8.31036 8.55898 8.23685 8.74402 8.23685C8.94221 8.23684 9.13633 8.18055 9.30378 8.07453C9.47123 7.9685 9.60513 7.81711 9.6899 7.63796C9.77468 7.45881 9.80683 7.25927 9.78263 7.06256C9.75843 6.86585 9.67887 6.68005 9.5532 6.52679C9.42754 6.37353 9.26093 6.25911 9.07278 6.19683C8.88462 6.13456 8.68265 6.12699 8.49036 6.17502C8.29807 6.22305 8.12338 6.32469 7.9866 6.46812C7.84982 6.61155 7.75658 6.79088 7.71774 6.98523L6.3489 6.71104C6.43376 6.28691 6.62972 5.89293 6.91675 5.56936C7.20378 5.24579 7.57159 5.00424 7.98257 4.8694C8.39355 4.73457 8.83296 4.71129 9.25589 4.80193C9.67882 4.89258 10.0701 5.09391 10.3897 5.38534C10.7093 5.67676 10.9458 6.04784 11.075 6.46062C11.2042 6.8734 11.2215 7.31309 11.1251 7.73474C11.0287 8.15639 10.822 8.54488 10.5262 8.86048C10.2305 9.17608 9.8562 9.40749 9.44169 9.53104Z" fill="black"/>
</svg>
