<svg width="16" height="16" viewBox="0 0 16 16" fill="none" xmlns="http://www.w3.org/2000/svg">
<path d="M8.35719 0.912689C4.19985 0.912689 0.817505 4.29503 0.817505 8.45237C0.817505 12.6097 4.19985 15.9921 8.35719 15.9921C12.5145 15.9921 15.8969 12.6097 15.8969 8.45237C15.8969 4.29503 12.5145 0.912689 8.35719 0.912689ZM13.5407 11.9322H11.9016C11.8508 11.9321 11.8009 11.9187 11.7569 11.8932C11.713 11.8678 11.6765 11.8312 11.6511 11.7872L11.066 10.7839C11.0275 10.7183 11.0163 10.6402 11.0349 10.5664L11.5735 8.39437C11.5843 8.35061 11.6052 8.30997 11.6344 8.27567C11.6637 8.24138 11.7006 8.21438 11.7421 8.19682L12.7607 7.76546C12.8104 7.74436 12.8651 7.73758 12.9185 7.74591C12.9719 7.75424 13.022 7.77733 13.063 7.81259L14.572 9.11101C14.6092 9.14303 14.6376 9.18398 14.6547 9.23001C14.6718 9.27603 14.6768 9.32564 14.6695 9.37417C14.5445 10.2316 14.245 11.0542 13.7894 11.7912C13.7636 11.8342 13.7272 11.8698 13.6836 11.8945C13.6401 11.9192 13.5908 11.9322 13.5407 11.9322ZM3.95372 7.76836L4.9723 8.19972C5.01382 8.21728 5.05067 8.24428 5.07993 8.27857C5.10919 8.31287 5.13005 8.35351 5.14086 8.39727L5.67951 10.5693C5.69805 10.6431 5.68686 10.7212 5.64834 10.7868L5.06329 11.7872C5.03789 11.8312 5.00139 11.8678 4.95743 11.8932C4.91347 11.9187 4.8636 11.9321 4.81281 11.9322H3.17366C3.12408 11.9323 3.07532 11.9196 3.03204 11.8954C2.98876 11.8712 2.95241 11.8364 2.92644 11.7941C2.47085 11.0571 2.1713 10.2345 2.04633 9.37707C2.03898 9.32854 2.04407 9.27893 2.06113 9.23291C2.07818 9.18688 2.10664 9.14593 2.14384 9.11391L3.65286 7.81549C3.69371 7.78051 3.74348 7.75757 3.79661 7.74925C3.84974 7.74093 3.90414 7.74755 3.95372 7.76836ZM13.2674 4.60605L12.6124 6.46849C12.5992 6.50656 12.5783 6.54146 12.5509 6.57098C12.5235 6.6005 12.4902 6.62399 12.4533 6.63995L11.381 7.09414C11.3318 7.11496 11.2778 7.12178 11.225 7.11384C11.1722 7.10591 11.1225 7.08354 11.0816 7.04919L9.04228 5.33863C9.0097 5.31167 8.9834 5.2779 8.96524 5.23971C8.94708 5.20151 8.9375 5.1598 8.93716 5.11751V3.90029C8.93719 3.8526 8.94898 3.80565 8.97149 3.7636C8.994 3.72155 9.02653 3.68571 9.06621 3.65924L10.6187 2.6247C10.6592 2.59766 10.7059 2.58126 10.7545 2.57701C10.803 2.57277 10.8518 2.58082 10.8964 2.60042C11.7897 2.99002 12.5825 3.57812 13.2145 4.32005C13.2477 4.35883 13.2701 4.40571 13.2794 4.45593C13.2887 4.50615 13.2846 4.55794 13.2674 4.60605ZM6.09528 2.6247L7.64817 3.65924C7.68784 3.68571 7.72037 3.72155 7.74288 3.7636C7.76539 3.80565 7.77718 3.8526 7.77721 3.90029V5.11751C7.77721 5.15987 7.76793 5.20172 7.75002 5.24011C7.73211 5.2785 7.706 5.3125 7.67354 5.33972L5.6342 7.05028C5.59328 7.08463 5.54366 7.107 5.49083 7.11493C5.43799 7.12286 5.38399 7.11604 5.33479 7.09523L4.26111 6.63995C4.2239 6.62419 4.19039 6.60083 4.16274 6.57137C4.13509 6.5419 4.1139 6.50699 4.10053 6.46885L3.44552 4.60641C3.4285 4.55813 3.42456 4.5062 3.43411 4.4559C3.44366 4.4056 3.46636 4.35873 3.49989 4.32005C4.13223 3.57738 4.92566 2.98875 5.81979 2.59897C5.86422 2.57997 5.91269 2.57237 5.96081 2.57686C6.00892 2.58136 6.05514 2.5978 6.09528 2.6247ZM6.72274 14.4946L6.00756 12.6934C5.99121 12.6525 5.9844 12.6084 5.98767 12.5644C5.99094 12.5204 6.00419 12.4778 6.02641 12.4397L6.5763 11.4972C6.6017 11.4533 6.6382 11.4167 6.68216 11.3913C6.72611 11.3658 6.77598 11.3524 6.82678 11.3522H9.8876C9.93839 11.3524 9.98826 11.3658 10.0322 11.3913C10.0762 11.4167 10.1127 11.4533 10.1381 11.4972L10.6883 12.4397C10.7106 12.4778 10.7239 12.5204 10.7273 12.5644C10.7306 12.6083 10.7238 12.6525 10.7075 12.6934L9.99743 14.4939C9.98006 14.5379 9.95219 14.577 9.91624 14.6078C9.88029 14.6386 9.83735 14.6601 9.79118 14.6704C8.84888 14.8867 7.86984 14.8867 6.92755 14.6704C6.88171 14.6599 6.83912 14.6384 6.80344 14.6078C6.76777 14.5772 6.74007 14.5383 6.72274 14.4946Z" fill="white"/>
</svg>
