<svg width="18" height="18" viewBox="0 0 18 18" fill="none" xmlns="http://www.w3.org/2000/svg">
<path d="M3.16296 8.96655C3.16296 9.15159 3.23647 9.32904 3.36731 9.45988C3.49815 9.59072 3.6756 9.66423 3.86064 9.66423H9.15599L7.55134 11.2619C7.48594 11.3268 7.43404 11.4039 7.39862 11.4889C7.3632 11.574 7.34496 11.6651 7.34496 11.7572C7.34496 11.8493 7.3632 11.9405 7.39862 12.0256C7.43404 12.1106 7.48594 12.1877 7.55134 12.2526C7.61619 12.318 7.69336 12.3699 7.77838 12.4053C7.86339 12.4407 7.95458 12.459 8.04668 12.459C8.13879 12.459 8.22998 12.4407 8.31499 12.4053C8.40001 12.3699 8.47718 12.318 8.54203 12.2526L11.3327 9.4619C11.3962 9.39555 11.446 9.31731 11.4792 9.23167C11.549 9.06181 11.549 8.87129 11.4792 8.70143C11.446 8.61579 11.3962 8.53755 11.3327 8.4712L8.54203 5.6805C8.47698 5.61545 8.39976 5.56385 8.31477 5.52865C8.22977 5.49344 8.13868 5.47532 8.04668 5.47532C7.95469 5.47532 7.8636 5.49344 7.7786 5.52865C7.69361 5.56385 7.61639 5.61545 7.55134 5.6805C7.48629 5.74555 7.43468 5.82278 7.39948 5.90777C7.36427 5.99276 7.34616 6.08386 7.34616 6.17585C7.34616 6.26785 7.36427 6.35894 7.39948 6.44393C7.43468 6.52893 7.48629 6.60615 7.55134 6.6712L9.15599 8.26888H3.86064C3.6756 8.26888 3.49815 8.34238 3.36731 8.47322C3.23647 8.60406 3.16296 8.78152 3.16296 8.96655ZM12.2327 1.98981H5.25599C4.70088 1.98981 4.16851 2.21032 3.776 2.60284C3.38348 2.99536 3.16296 3.52773 3.16296 4.08283V6.17585C3.16296 6.36089 3.23647 6.53834 3.36731 6.66918C3.49815 6.80002 3.6756 6.87353 3.86064 6.87353C4.04567 6.87353 4.22313 6.80002 4.35397 6.66918C4.48481 6.53834 4.55831 6.36089 4.55831 6.17585V4.08283C4.55831 3.8978 4.63182 3.72034 4.76266 3.5895C4.8935 3.45866 5.07095 3.38516 5.25599 3.38516H12.2327C12.4178 3.38516 12.5952 3.45866 12.7261 3.5895C12.8569 3.72034 12.9304 3.8978 12.9304 4.08283V13.8503C12.9304 14.0353 12.8569 14.2128 12.7261 14.3436C12.5952 14.4744 12.4178 14.5479 12.2327 14.5479H5.25599C5.07095 14.5479 4.8935 14.4744 4.76266 14.3436C4.63182 14.2128 4.55831 14.0353 4.55831 13.8503V11.7572C4.55831 11.5722 4.48481 11.3948 4.35397 11.2639C4.22313 11.1331 4.04567 11.0596 3.86064 11.0596C3.6756 11.0596 3.49815 11.1331 3.36731 11.2639C3.23647 11.3948 3.16296 11.5722 3.16296 11.7572V13.8503C3.16296 14.4054 3.38348 14.9377 3.776 15.3303C4.16851 15.7228 4.70088 15.9433 5.25599 15.9433H12.2327C12.7878 15.9433 13.3202 15.7228 13.7127 15.3303C14.1052 14.9377 14.3258 14.4054 14.3258 13.8503V4.08283C14.3258 3.52773 14.1052 2.99536 13.7127 2.60284C13.3202 2.21032 12.7878 1.98981 12.2327 1.98981Z" fill="black"/>
</svg>
