<svg width="17" height="16" viewBox="0 0 17 16" fill="none" xmlns="http://www.w3.org/2000/svg">
<path d="M8.50001 0.460312C4.34267 0.460312 0.960327 3.84266 0.960327 7.99999C0.960327 12.1573 4.34267 15.5397 8.50001 15.5397C12.6573 15.5397 16.0397 12.1573 16.0397 7.99999C16.0397 3.84266 12.6573 0.460312 8.50001 0.460312ZM13.6835 11.4798H12.0444C11.9936 11.4797 11.9437 11.4663 11.8998 11.4408C11.8558 11.4154 11.8193 11.3788 11.7939 11.3349L11.2089 10.3315C11.1703 10.2659 11.1591 10.1878 11.1777 10.114L11.7163 7.942C11.7271 7.89823 11.748 7.85759 11.7773 7.8233C11.8065 7.789 11.8434 7.762 11.8849 7.74444L12.9035 7.31309C12.9532 7.29198 13.0079 7.28521 13.0613 7.29353C13.1148 7.30186 13.1648 7.32495 13.2058 7.36021L14.7148 8.65863C14.752 8.69066 14.7805 8.7316 14.7975 8.77763C14.8146 8.82366 14.8197 8.87326 14.8123 8.92179C14.6873 9.77919 14.3878 10.6018 13.9322 11.3388C13.9065 11.3818 13.87 11.4174 13.8265 11.4421C13.7829 11.4668 13.7336 11.4798 13.6835 11.4798ZM4.09654 7.31599L5.11513 7.74734C5.15664 7.7649 5.1935 7.7919 5.22275 7.8262C5.25201 7.86049 5.27288 7.90113 5.28368 7.9449L5.82233 10.1169C5.84087 10.1907 5.82968 10.2688 5.79116 10.3344L5.20611 11.3349C5.18072 11.3788 5.14421 11.4154 5.10025 11.4408C5.0563 11.4663 5.00643 11.4797 4.95563 11.4798H3.31648C3.2669 11.4799 3.21815 11.4672 3.17487 11.443C3.13159 11.4188 3.09523 11.384 3.06926 11.3417C2.61367 10.6047 2.31413 9.78209 2.18915 8.92469C2.1818 8.87616 2.18689 8.82656 2.20395 8.78053C2.221 8.7345 2.24946 8.69356 2.28666 8.66153L3.79568 7.36311C3.83653 7.32813 3.8863 7.3052 3.93943 7.29688C3.99256 7.28855 4.04696 7.29517 4.09654 7.31599ZM13.4102 4.15367L12.7552 6.01612C12.7421 6.05418 12.7211 6.08908 12.6937 6.1186C12.6663 6.14812 12.6331 6.17161 12.5961 6.18757L11.5239 6.64176C11.4747 6.66258 11.4207 6.6694 11.3678 6.66147C11.315 6.65354 11.2654 6.63116 11.2244 6.59682L9.18511 4.88625C9.15252 4.85929 9.12622 4.82553 9.10806 4.78733C9.08991 4.74913 9.08032 4.70743 9.07998 4.66513V3.44791C9.08001 3.40022 9.0918 3.35327 9.11431 3.31122C9.13682 3.26917 9.16936 3.23333 9.20903 3.20686L10.7616 2.17233C10.8021 2.14528 10.8487 2.12888 10.8973 2.12464C10.9458 2.12039 10.9946 2.12844 11.0392 2.14804C11.9326 2.53764 12.7253 3.12575 13.3573 3.86767C13.3905 3.90646 13.4129 3.95333 13.4222 4.00355C13.4315 4.05377 13.4274 4.10556 13.4102 4.15367ZM6.2381 2.17233L7.79099 3.20686C7.83066 3.23333 7.86319 3.26917 7.8857 3.31122C7.90821 3.35327 7.92 3.40022 7.92003 3.44791V4.66513C7.92003 4.7075 7.91075 4.74934 7.89284 4.78773C7.87493 4.82612 7.84882 4.86012 7.81636 4.88734L5.77702 6.5979C5.7361 6.63225 5.68648 6.65462 5.63365 6.66255C5.58082 6.67049 5.52682 6.66367 5.47761 6.64285L4.40393 6.18757C4.36672 6.17181 4.33322 6.14845 4.30556 6.11899C4.27791 6.08953 4.25672 6.05461 4.24335 6.01648L3.58834 4.15403C3.57132 4.10575 3.56738 4.05382 3.57693 4.00352C3.58648 3.95322 3.60918 3.90635 3.64271 3.86767C4.27505 3.125 5.06848 2.53637 5.96262 2.14659C6.00704 2.12759 6.05552 2.11999 6.10363 2.12448C6.15174 2.12898 6.19797 2.14542 6.2381 2.17233ZM6.86557 14.0423L6.15038 12.2411C6.13403 12.2001 6.12723 12.156 6.13049 12.112C6.13376 12.068 6.14701 12.0254 6.16923 11.9873L6.71912 11.0449C6.74452 11.0009 6.78102 10.9643 6.82498 10.9389C6.86894 10.9134 6.91881 10.9 6.9696 10.8999H10.0304C10.0812 10.9 10.1311 10.9134 10.175 10.9389C10.219 10.9643 10.2555 11.0009 10.2809 11.0449L10.8311 11.9873C10.8534 12.0254 10.8667 12.068 10.8701 12.112C10.8734 12.1559 10.8667 12.2001 10.8504 12.2411L10.1403 14.0415C10.1229 14.0855 10.095 14.1246 10.0591 14.1554C10.0231 14.1862 9.98017 14.2077 9.934 14.2181C8.9917 14.4343 8.01267 14.4343 7.07037 14.2181C7.02454 14.2076 6.98195 14.1861 6.94627 14.1554C6.91059 14.1248 6.88289 14.086 6.86557 14.0423Z" fill="white"/>
</svg>
